HIERARCHY
ROOT Hips
{
	OFFSET 0.00 0.00 0.00
	CHANNELS 6 Xposition Yposition Zposition Xrotation Yrotation Zrotation
	JOINT Spine
	{
		OFFSET 0.00000 7.53995 0.00000
		CHANNELS 3 Xrotation Yrotation Zrotation
		JOINT Head
		{
			OFFSET 0.00000 15.09381 0.00000
			CHANNELS 3 Xrotation Yrotation Zrotation
			End Site
			{
				OFFSET 0.00000 4.52755 0.00000
			}
		}
		JOINT LeftShoulder
		{
			OFFSET 0.00000 9.73893 0.00000
			CHANNELS 3 Xrotation Yrotation Zrotation
			JOINT LeftArm
			{
				OFFSET 7.08401 0.00000 0.00000
				CHANNELS 3 Xrotation Yrotation Zrotation
				JOINT LeftForeArm
				{
					OFFSET 10.25932 0.00000 0.00000
					CHANNELS 3 Yrotation Zrotation Xrotation
					JOINT LeftHand
					{
						OFFSET 9.89698 0.00000 0.00000
						CHANNELS 3 Xrotation Yrotation Zrotation
						JOINT LeftHandThumb1
						{
							OFFSET 0.00000 0.00000 0.00000
							CHANNELS 3 Xrotation Zrotation Yrotation
							End Site
							{
								OFFSET 0.00000 0.00000 3.93700
							}
						}
						End Site
						{
							OFFSET 3.93700 0.00000 0.00000
						}
					}
				}
			}
		}
		JOINT RightShoulder
		{
			OFFSET 0.00000 9.73893 0.00000
			CHANNELS 3 Xrotation Yrotation Zrotation
			JOINT RightArm
			{
				OFFSET -7.08401 0.00000 0.00000
				CHANNELS 3 Xrotation Yrotation Zrotation
				JOINT RightForeArm
				{
					OFFSET -10.25932 0.00000 0.00000
					CHANNELS 3 Yrotation Zrotation Xrotation
					JOINT RightHand
					{
						OFFSET -9.89698 0.00000 0.00000
						CHANNELS 3 Xrotation Yrotation Zrotation
						JOINT RightHandThumb1
						{
							OFFSET 0.00000 0.00000 0.00000
							CHANNELS 3 Xrotation Zrotation Yrotation
							End Site
							{
								OFFSET 0.00000 0.00000 3.93700
							}
						}
						End Site
						{
							OFFSET -3.93700 0.00000 0.00000
						}
					}
				}
			}
		}
	}
	JOINT LeftUpLeg
	{
		OFFSET 3.34548 0.00000 0.00000
		CHANNELS 3 Xrotation Yrotation Zrotation
		JOINT LeftLeg
		{
			OFFSET 0.00000 -19.11473 0.00000
			CHANNELS 3 Xrotation Yrotation Zrotation
			JOINT LeftFoot
			{
				OFFSET 0.00000 -16.04560 0.00000
				CHANNELS 3 Xrotation Yrotation Zrotation
				JOINT LeftToeBase
				{
					OFFSET 0.00000 -1.43467 5.35428
					CHANNELS 3 Xrotation Yrotation Zrotation
					End Site
					{
						OFFSET 0.00000 0.00000 2.95275
					}
				}
			}
		}
	}
	JOINT RightUpLeg
	{
		OFFSET -3.34548 0.00000 0.00000
		CHANNELS 3 Xrotation Yrotation Zrotation
		JOINT RightLeg
		{
			OFFSET 0.00000 -19.11473 0.00000
			CHANNELS 3 Xrotation Yrotation Zrotation
			JOINT RightFoot
			{
				OFFSET 0.00000 -16.04560 0.00000
				CHANNELS 3 Xrotation Yrotation Zrotation
				JOINT RightToeBase
				{
					OFFSET 0.00000 -1.43467 5.35428
					CHANNELS 3 Xrotation Yrotation Zrotation
					End Site
					{
						OFFSET 0.00000 0.00000 2.95275
					}
				}
			}
		}
	}
}
MOTION
Frames: 9
Frame Time: 0.008333
 4.6548 36.6572 -2.2575 4.6813 -16.4254 0.5597 -0.1751 12.5589 -5.4357 7.3565 -14.8605 8.7422 -9.0442 5.6728 10.4499 -19.4357 33.6100 -34.1301 -93.1055 -0.0000 16.0982 -13.5026 16.3584 40.4505 33.1476 -0.0000 26.2537 19.7968 -3.8224 4.4338 -9.9103 18.2161 63.3692 31.4882 -0.0000 178.6260 -0.1659 1.0068 9.3569 32.8623 0.0000 -24.3270 -5.7191 17.0017 -4.8078 12.1182 0.0000 -0.0000 -20.3857 12.2415 -5.3792 13.6679 0.0000 0.0000 -37.1473 -26.5273 -21.0193 91.5388 0.0000 -0.0000 -2.4723 -10.2691 15.6587 3.1785 -0.0000 0.0000
 4.6523 36.6578 -2.2591 4.6933 -16.4096 0.5679 -0.1792 12.5617 -5.4561 7.3470 -14.9058 8.7782 -9.0337 5.6734 10.4506 -19.4328 33.6107 -34.1313 -93.1606 -0.0000 16.0924 -13.4952 16.3625 40.4274 33.1476 -0.0000 26.2537 19.7864 -3.8147 4.4262 -9.8889 18.2697 63.3426 31.5064 -0.0000 178.5668 -0.1640 0.9989 9.3263 32.8623 0.0000 -24.3270 -5.7186 17.0116 -4.8096 12.0924 -0.0000 -0.0000 -20.3681 12.2155 -5.4122 13.6758 0.0000 0.0000 -37.1140 -26.5366 -21.0073 91.4804 -0.0000 0.0000 -2.4742 -10.2945 15.7842 3.3494 0.0000 0.0000
 4.6505 36.6578 -2.2616 4.7105 -16.3836 0.5908 -0.1804 12.5567 -5.4974 7.3353 -14.9486 8.8208 -9.0311 5.6628 10.4672 -19.4136 33.6180 -34.1492 -93.2265 -0.0000 16.1056 -13.5341 16.3969 40.4543 33.1476 -0.0000 26.2537 19.7915 -3.8190 4.4254 -9.9086 18.2909 63.3424 31.5447 -0.0000 178.6015 -0.1697 1.0363 9.3003 32.8623 0.0000 -24.3270 -5.7243 17.0074 -4.8274 12.0729 -0.0000 0.0000 -20.3501 12.2128 -5.4683 13.7189 -0.0000 -0.0000 -37.0980 -26.5477 -21.0206 91.4269 0.0000 -0.0000 -2.5475 -10.4420 16.1383 3.8320 -0.0000 0.0000
 4.6484 36.6582 -2.2641 4.7224 -16.3621 0.6072 -0.1747 12.5578 -5.5353 7.3327 -14.9967 8.8732 -9.0216 5.6594 10.4822 -19.4126 33.6187 -34.1764 -93.2879 -0.0000 16.1050 -13.5299 16.3990 40.4414 33.1476 -0.0000 26.2537 19.7779 -3.8189 4.4371 -9.9053 18.3063 63.3279 31.5822 -0.0000 178.5823 -0.1645 1.0090 9.2585 32.8623 0.0000 -24.3270 -5.7261 17.0076 -4.8373 12.0535 0.0000 0.0000 -20.3416 12.1828 -5.4676 13.7476 -0.0000 0.0000 -37.0779 -26.5768 -21.0242 91.3715 -0.0000 -0.0000 -2.5132 -10.3311 15.8610 3.4825 -0.0000 0.0000
 4.6455 36.6582 -2.2665 4.7408 -16.3349 0.6229 -0.1832 12.5554 -5.5691 7.3375 -15.0346 8.9114 -9.0229 5.6541 10.4911 -19.4031 33.6041 -34.1963 -93.3477 -0.0000 16.1198 -13.5307 16.3985 40.4441 33.1476 -0.0000 26.2537 19.7822 -3.8133 4.4448 -9.9392 18.2436 63.3499 31.6355 -0.0000 178.6847 -0.1664 1.0249 9.2227 32.8623 0.0000 -24.3270 -5.7356 17.0018 -4.8464 12.0350 -0.0000 0.0000 -20.3203 12.1731 -5.4750 13.7372 -0.0000 0.0000 -37.0640 -26.6053 -21.0325 91.3137 0.0000 -0.0000 -2.4986 -10.3215 15.8676 3.3218 0.0000 -0.0000
 4.6410 36.6586 -2.2683 4.7483 -16.3101 0.6283 -0.1788 12.5582 -5.5989 7.3462 -15.0852 8.9583 -9.0243 5.6382 10.5048 -19.4029 33.6113 -34.2244 -93.4073 -0.0000 16.1491 -13.5294 16.4295 40.3894 33.1476 -0.0000 26.2537 19.7973 -3.8145 4.4638 -9.9599 18.2718 63.3341 31.6554 -0.0000 178.6919 -0.1680 1.0287 9.2772 32.8623 0.0000 -24.3270 -5.7379 17.0178 -4.8414 12.0235 -0.0000 -0.0000 -20.3015 12.1457 -5.5340 13.7261 -0.0000 0.0000 -37.0367 -26.6406 -21.0346 91.2568 -0.0000 -0.0000 -2.4961 -10.3169 15.8786 3.3159 -0.0000 0.0000
 4.6370 36.6590 -2.2709 4.7691 -16.2787 0.6432 -0.1904 12.5614 -5.6364 7.3836 -15.1095 9.0313 -9.0226 5.6165 10.5208 -19.4011 33.6057 -34.2565 -93.4547 -0.0000 16.1884 -13.5219 16.4376 40.3596 33.1476 -0.0000 26.2537 19.8080 -3.8121 4.4848 -9.9715 18.2699 63.3280 31.6778 -0.0000 178.6994 -0.1624 0.9990 9.2312 32.8623 0.0000 -24.3270 -5.7516 17.0050 -4.8467 12.0071 -0.0000 -0.0000 -20.3027 12.1368 -5.5563 13.7618 -0.0000 0.0000 -37.0295 -26.6701 -21.0468 91.2050 0.0000 0.0000 -2.4961 -10.2994 15.9192 3.3372 -0.0000 0.0000
 4.6324 36.6590 -2.2747 4.7865 -16.2394 0.6535 -0.1909 12.5498 -5.6683 7.3824 -15.1526 9.0625 -9.0351 5.5863 10.5318 -19.3917 33.6120 -34.2706 -93.4989 -0.0000 16.2400 -13.4893 16.4290 40.3031 33.1476 -0.0000 26.2537 19.7930 -3.8145 4.4940 -9.9669 18.2910 63.3306 31.6905 -0.0000 178.7199 -0.1665 1.0179 9.2906 32.8623 0.0000 -24.3270 -5.7728 16.9957 -4.8439 12.0065 0.0000 -0.0000 -20.2924 12.1083 -5.5892 13.7661 -0.0000 0.0000 -37.0236 -26.7102 -21.0573 91.1588 -0.0000 0.0000 -2.4978 -10.2980 15.8959 3.3813 0.0000 -0.0000
 4.6279 36.6599 -2.2782 4.8020 -16.2097 0.6621 -0.1902 12.5430 -5.6978 7.3950 -15.1788 9.1018 -9.0661 5.5731 10.5443 -19.3705 33.5912 -34.2985 -93.5319 -0.0000 16.2619 -13.4903 16.4278 40.3072 33.1476 -0.0000 26.2537 19.7945 -3.8163 4.5086 -10.0002 18.2951 63.3411 31.6845 -0.0000 178.7796 -0.1671 1.0185 9.3151 32.8623 0.0000 -24.3270 -5.7889 16.9976 -4.8402 11.9986 -0.0000 -0.0000 -20.2821 12.0880 -5.6052 13.8267 -0.0000 0.0000 -37.0128 -26.7351 -21.0592 91.1107 0.0000 -0.0000 -2.5009 -10.2849 15.8901 3.3788 0.0000 -0.0000
